<svg width="34" height="33" viewBox="0 0 34 33" fill="none" xmlns="http://www.w3.org/2000/svg">
<path d="M5.60352 24.75C5.60352 23.2913 6.19388 21.8924 7.24473 20.8609C8.29558 19.8295 9.72084 19.25 11.207 19.25H22.4139C23.9 19.25 25.3252 19.8295 26.3761 20.8609C27.4269 21.8924 28.0173 23.2913 28.0173 24.75C28.0173 25.4793 27.7221 26.1788 27.1967 26.6945C26.6713 27.2103 25.9586 27.5 25.2156 27.5H8.40524C7.66218 27.5 6.94955 27.2103 6.42412 26.6945C5.8987 26.1788 5.60352 25.4793 5.60352 24.75Z" stroke="black" stroke-width="1.5" stroke-linejoin="round"/>
<path d="M16.8105 13.75C19.1315 13.75 21.0131 11.9032 21.0131 9.625C21.0131 7.34683 19.1315 5.5 16.8105 5.5C14.4895 5.5 12.6079 7.34683 12.6079 9.625C12.6079 11.9032 14.4895 13.75 16.8105 13.75Z" stroke="black" stroke-width="1.5"/>
</svg>
