<svg width="33" height="33" viewBox="0 0 33 33" fill="none" xmlns="http://www.w3.org/2000/svg">
<path d="M3.18457 4.46875C2.91107 4.46875 2.64876 4.5774 2.45537 4.7708C2.26197 4.96419 2.15332 5.2265 2.15332 5.5C2.15332 5.7735 2.26197 6.03581 2.45537 6.2292C2.64876 6.4226 2.91107 6.53125 3.18457 6.53125H4.80845C5.05723 6.53117 5.29767 6.62103 5.48542 6.78427C5.67316 6.94751 5.79557 7.17311 5.83007 7.4195L7.55432 19.6804C7.65809 20.419 8.02524 21.0954 8.58817 21.5848C9.1511 22.0742 9.87189 22.3437 10.6178 22.3438H24.8408C25.1143 22.3438 25.3766 22.2351 25.57 22.0417C25.7634 21.8483 25.8721 21.586 25.8721 21.3125C25.8721 21.039 25.7634 20.7767 25.57 20.5833C25.3766 20.3899 25.1143 20.2812 24.8408 20.2812H10.6178C10.369 20.2813 10.1286 20.1915 9.94085 20.0282C9.7531 19.865 9.63069 19.6394 9.5962 19.393L9.4312 18.2201H24.3527C25.0133 18.2205 25.6566 18.0093 26.1886 17.6177C26.7205 17.226 27.1131 16.6744 27.3089 16.0435L29.9503 7.535C29.9981 7.38073 30.009 7.21739 29.9822 7.05814C29.9553 6.89888 29.8914 6.74817 29.7956 6.61813C29.6998 6.48809 29.5748 6.38237 29.4307 6.30949C29.2866 6.2366 29.1273 6.19858 28.9658 6.1985H7.58457C7.32978 5.6798 6.9348 5.24283 6.44438 4.93711C5.95396 4.63139 5.38772 4.46914 4.80982 4.46875H3.18457ZM7.68945 7.83331H17.6895H28.1895L25.6895 15.3333C25.624 15.5435 25.6895 15.8333 25.1895 16.1562C25.0121 16.2866 24.6895 16.3333 24.1895 16.3333H16.1895H8.68945L7.68945 7.83331ZM10.7031 24.4062C10.0649 24.4062 9.45285 24.6598 9.00159 25.111C8.55033 25.5623 8.29682 26.1743 8.29682 26.8125C8.29682 27.4507 8.55033 28.0627 9.00159 28.514C9.45285 28.9652 10.0649 29.2188 10.7031 29.2188C11.3412 29.2188 11.9533 28.9652 12.4045 28.514C12.8558 28.0627 13.1093 27.4507 13.1093 26.8125C13.1093 26.1743 12.8558 25.5623 12.4045 25.111C11.9533 24.6598 11.3412 24.4062 10.7031 24.4062ZM20.0338 26.8125C20.0338 26.1743 20.2873 25.5623 20.7386 25.111C21.1899 24.6598 21.8019 24.4062 22.4401 24.4062C23.0782 24.4062 23.6903 24.6598 24.1415 25.111C24.5928 25.5623 24.8463 26.1743 24.8463 26.8125C24.8463 27.4507 24.5928 28.0627 24.1415 28.514C23.6903 28.9652 23.0782 29.2188 22.4401 29.2188C21.8019 29.2188 21.1899 28.9652 20.7386 28.514C20.2873 28.0627 20.0338 27.4507 20.0338 26.8125Z" fill="black"/>
</svg>
